<svg width="50" height="55" viewBox="0 0 50 55" fill="none" xmlns="http://www.w3.org/2000/svg">
<path d="M45.0098 10.6745L29.6812 1.99871C26.7924 0.366314 23.2079 0.366314 20.3237 1.99871L4.99518 10.6745C2.06389 12.3326 0.240967 15.4409 0.240967 18.7851V36.0082C0.240967 39.3524 2.06153 42.4608 4.99518 44.1189L20.3237 52.7946C21.767 53.612 23.3847 54.0183 25.0025 54.0183C26.6202 54.0183 28.238 53.6097 29.6812 52.7946L45.0098 44.1189C47.9411 42.4584 49.764 39.3524 49.764 36.0082V18.7851C49.764 15.4409 47.9434 12.3349 45.0098 10.6745ZM22.6607 6.05286C24.1063 5.23783 25.901 5.23783 27.3395 6.05286L42.6492 14.717L36.6215 18.1289C36.2937 17.8533 35.9754 17.5661 35.598 17.3512L28.521 13.3274C26.3467 12.092 23.6536 12.092 21.4769 13.3274L14.4022 17.3512C14.0225 17.5661 13.7042 17.8533 13.3764 18.1289L7.3487 14.717L22.6584 6.05286H22.6607ZM15.5672 24.7472L22.6419 28.75V36.7462L16.7557 33.416C16.0223 33.0003 15.5672 32.2226 15.5672 31.3889V24.7472ZM25.0001 24.7075L17.9537 20.7188L23.8257 17.3792C24.1865 17.1737 24.5945 17.071 25.0001 17.071C25.4057 17.071 25.8113 17.1737 26.1745 17.3792L32.0489 20.7188L25.0025 24.7075H25.0001ZM27.3584 28.7523L34.4331 24.7496V31.3913C34.4331 32.225 33.9779 33.0027 33.2445 33.4183L27.3584 36.7485V28.7523ZM7.33219 40.0647C5.86537 39.2357 4.95509 37.6803 4.95509 36.0106V18.7875C4.95509 18.7734 4.9598 18.7618 4.9598 18.7501L11.0205 22.1784C10.9427 22.5917 10.8507 23.0027 10.8507 23.4324V31.3936C10.8507 33.8994 12.2161 36.2301 14.4163 37.4748L21.4911 41.4776C21.8566 41.6854 22.2528 41.8069 22.6442 41.9423V48.7288L7.33219 40.0647ZM45.0451 36.0106C45.0451 37.6827 44.1349 39.2357 42.668 40.0647L27.3584 48.7311V41.9423C27.7475 41.8045 28.1436 41.6831 28.5092 41.4776L35.5863 37.4748C37.7841 36.2301 39.1495 33.8994 39.1495 31.3936V23.4324C39.1495 23.0051 39.0576 22.5941 38.9798 22.1784L45.0404 18.7501C45.0404 18.7641 45.0451 18.7758 45.0451 18.7875V36.0106Z" fill="#40513B"/>
</svg>
