<svg width="44" height="55" viewBox="0 0 44 55" fill="none" xmlns="http://www.w3.org/2000/svg">
<path d="M22.185 54.0159C23.4587 54.0159 24.6802 53.5059 25.5808 52.5982C26.4814 51.6905 26.9873 50.4593 26.9873 49.1756H17.3827C17.3827 50.4593 17.8886 51.6905 18.7892 52.5982C19.6898 53.5059 20.9113 54.0159 22.185 54.0159ZM2.97561 44.3352H41.3944C41.8692 44.3351 42.3334 44.1931 42.7281 43.9272C43.1229 43.6612 43.4306 43.2833 43.6123 42.8411C43.794 42.3989 43.8415 41.9124 43.7489 41.443C43.6563 40.9736 43.4277 40.5424 43.092 40.2039L38.9932 36.0727V22.5536C38.9855 18.4841 37.5259 14.5531 34.8809 11.4783C32.2359 8.40362 28.5819 6.39029 24.5862 5.80594V3.19215C24.5862 2.55028 24.3332 1.9347 23.8829 1.48083C23.4326 1.02695 22.8218 0.771973 22.185 0.771973C21.5482 0.771973 20.9374 1.02695 20.4871 1.48083C20.0368 1.9347 19.7838 2.55028 19.7838 3.19215V5.80594C15.7881 6.39029 12.1341 8.40362 9.48913 11.4783C6.84412 14.5531 5.38451 18.4841 5.37679 22.5536V36.0727L1.27798 40.2039C0.942276 40.5424 0.713669 40.9736 0.621062 41.443C0.528455 41.9124 0.576005 42.3989 0.757702 42.8411C0.939399 43.2833 1.24708 43.6612 1.64186 43.9272C2.03664 44.1931 2.50078 44.3351 2.97561 44.3352ZM9.47559 38.7857C9.92593 38.332 10.179 37.7165 10.1791 37.0747V22.5536C10.1791 19.3442 11.444 16.2663 13.6956 13.997C15.9471 11.7276 19.0008 10.4527 22.185 10.4527C25.3692 10.4527 28.4229 11.7276 30.6744 13.997C32.926 16.2663 34.1909 19.3442 34.1909 22.5536V37.0747C34.191 37.7165 34.4441 38.332 34.8944 38.7857L35.5979 39.4948H8.77204L9.47559 38.7857Z" fill="#40513B"/>
</svg>
