<svg width="54" height="54" viewBox="0 0 54 54" fill="none" xmlns="http://www.w3.org/2000/svg">
<path d="M53.6352 44.2709V13.2815C53.6352 11.5203 52.9356 9.83126 51.6902 8.58591C50.4449 7.34056 48.7558 6.64093 46.9946 6.64093H44.7811C44.7809 5.61324 44.5421 4.59962 44.0837 3.67986C43.6252 2.7601 42.9595 1.9593 42.139 1.34049C41.3185 0.721685 40.3656 0.301757 39.3552 0.113762C38.3449 -0.0742324 37.3047 -0.0251625 36.3165 0.25711L29.676 2.15632C28.7096 2.43271 27.8192 2.92636 27.0728 3.59954C26.3265 2.92636 25.4361 2.43271 24.4697 2.15632L17.8291 0.25711C16.841 -0.0251625 15.8008 -0.0742324 14.7904 0.113762C13.7801 0.301757 12.8272 0.721685 12.0067 1.34049C11.1862 1.9593 10.5205 2.7601 10.062 3.67986C9.60356 4.59962 9.36482 5.61324 9.36461 6.64093H7.15108C5.38989 6.64093 3.70083 7.34056 2.45548 8.58591C1.21013 9.83126 0.510498 11.5203 0.510498 13.2815L0.510498 44.2709H24.8593V48.698H16.0052V53.125H38.1405V48.698H29.2864V44.2709H53.6352ZM29.2864 8.54013C29.2866 8.05939 29.4433 7.59178 29.7328 7.208C30.0224 6.82422 30.429 6.54514 30.8912 6.41293L37.5318 4.51594C37.7297 4.45866 37.9345 4.42886 38.1405 4.4274C38.7276 4.4274 39.2906 4.66061 39.7057 5.07572C40.1208 5.49084 40.354 6.05386 40.354 6.64093V20.4666L29.2864 23.6275V8.54013ZM13.7917 6.64093C13.7922 6.29853 13.8721 5.96092 14.0251 5.65463C14.1782 5.34835 14.4002 5.08175 14.6738 4.8758C14.9473 4.66985 15.2649 4.53016 15.6015 4.46771C15.9382 4.40527 16.2847 4.42178 16.6139 4.51594L23.2545 6.41293C23.7167 6.54514 24.1233 6.82422 24.4128 7.208C24.7024 7.59178 24.8591 8.05939 24.8593 8.54013V23.6275L13.7917 20.4666V6.64093ZM4.93756 13.2815C4.93756 12.6944 5.17077 12.1314 5.58588 11.7163C6.001 11.3012 6.56402 11.068 7.15108 11.068H9.36461V23.8046L27.0728 28.8648L44.7811 23.8046V11.068H46.9946C47.5817 11.068 48.1447 11.3012 48.5598 11.7163C48.9749 12.1314 49.2081 12.6944 49.2081 13.2815V39.8439H4.93756V13.2815Z" fill="#40513B"/>
</svg>
