<svg width="33" height="25" viewBox="0 0 33 25" fill="none" xmlns="http://www.w3.org/2000/svg">
<path d="M2.20023 0.00813194C1.66998 0.093163 1.19514 0.385827 0.88019 0.82174C0.565236 1.25765 0.435959 1.80111 0.5208 2.33255C0.60564 2.864 0.897648 3.3399 1.33259 3.65556C1.76752 3.97122 2.30976 4.10079 2.84002 4.01575H8.83799L9.19787 5.01766L10.8373 10.0272L12.4768 15.0367C12.6367 15.5577 13.3165 16.0386 13.8363 16.0386H27.8316C28.3914 16.0386 29.0312 15.5577 29.1911 15.0367L32.43 5.01766C32.59 4.49667 32.35 4.01575 31.7902 4.01575H14.0362L12.5167 1.13027C12.3549 0.799074 12.105 0.519066 11.7946 0.321077C11.4842 0.123089 11.1252 0.0147987 10.7573 0.00813194L2.76004 0.00813194C2.64033 -0.00271065 2.51988 -0.00271065 2.40016 0.00813194C2.32026 0.00331845 2.24015 0.00331845 2.16025 0.00813194L2.20023 0.00813194ZM14.836 20.0462C13.7163 20.0462 12.8366 20.9279 12.8366 22.0501C12.8366 23.1722 13.7163 24.0539 14.836 24.0539C15.9556 24.0539 16.8353 23.1722 16.8353 22.0501C16.8353 20.9279 15.9556 20.0462 14.836 20.0462ZM26.8319 20.0462C25.7123 20.0462 24.8326 20.9279 24.8326 22.0501C24.8326 23.1722 25.7123 24.0539 26.8319 24.0539C27.9515 24.0539 28.8312 23.1722 28.8312 22.0501C28.8312 20.9279 27.9515 20.0462 26.8319 20.0462Z" fill="#40513B"/>
</svg>
