<svg width="53" height="53" viewBox="0 0 53 53" fill="none" xmlns="http://www.w3.org/2000/svg">
<path d="M32.966 19.875H39.75V4.52267C39.75 2.02946 37.7205 0 35.2273 0H17.7727C15.2795 0 13.25 2.02725 13.25 4.52267V19.875H20.3211L24.3712 23.4459C25.0116 24.0112 25.8132 24.2939 26.6148 24.2939C27.4054 24.2939 28.196 24.0156 28.8187 23.4635L32.966 19.8772V19.875ZM26.6126 19.5305L21.9906 15.4583H17.6843L17.7727 4.41667L35.3333 4.52267V15.4583H31.323L26.6126 19.5305ZM24.2917 48.5833V53H19.875V48.5833C19.875 47.3665 18.8857 46.375 17.6667 46.375H6.625C5.406 46.375 4.41667 47.3665 4.41667 48.5833V53H0V48.5833C0 44.9307 2.97242 41.9583 6.625 41.9583H17.6667C21.3193 41.9583 24.2917 44.9307 24.2917 48.5833ZM53 48.5833V53H48.5833V48.5833C48.5833 47.3665 47.594 46.375 46.375 46.375H35.3333C34.1143 46.375 33.125 47.3665 33.125 48.5833V53H28.7083V48.5833C28.7083 44.9307 31.6807 41.9583 35.3333 41.9583H46.375C50.0276 41.9583 53 44.9307 53 48.5833ZM12.1458 39.75C16.4079 39.75 19.875 36.2829 19.875 32.0208C19.875 27.7587 16.4079 24.2917 12.1458 24.2917C7.88375 24.2917 4.41667 27.7587 4.41667 32.0208C4.41667 36.2829 7.88375 39.75 12.1458 39.75ZM12.1458 28.7083C13.9721 28.7083 15.4583 30.1945 15.4583 32.0208C15.4583 33.8471 13.9721 35.3333 12.1458 35.3333C10.3195 35.3333 8.83333 33.8471 8.83333 32.0208C8.83333 30.1945 10.3195 28.7083 12.1458 28.7083ZM33.125 32.0208C33.125 36.2829 36.5921 39.75 40.8542 39.75C45.1162 39.75 48.5833 36.2829 48.5833 32.0208C48.5833 27.7587 45.1162 24.2917 40.8542 24.2917C36.5921 24.2917 33.125 27.7587 33.125 32.0208ZM40.8542 28.7083C42.6805 28.7083 44.1667 30.1945 44.1667 32.0208C44.1667 33.8471 42.6805 35.3333 40.8542 35.3333C39.0279 35.3333 37.5417 33.8471 37.5417 32.0208C37.5417 30.1945 39.0279 28.7083 40.8542 28.7083Z" fill="#40513B"/>
</svg>
