<svg width="26" height="21" viewBox="0 0 26 21" fill="none" xmlns="http://www.w3.org/2000/svg">
<path d="M0 6.3803V16.8009C0 19.1207 1.88051 21.0012 4.20023 21.0012H21.0012C23.321 21.0012 25.2014 19.1207 25.2014 16.8009V4.20023C25.2014 1.88051 23.321 0 21.0012 0H4.20023C1.88051 0 0 1.88051 0 4.20023V6.3803ZM4.20023 2.10012H21.0012C22.1611 2.10012 23.1013 3.04038 23.1013 4.20023V5.75405L12.6009 11.4081L2.10012 5.75382V4.20023C2.10012 3.04038 3.04038 2.10012 4.20023 2.10012ZM2.10012 8.13905L12.1031 13.5253C12.4139 13.6926 12.788 13.6926 13.0987 13.5253L23.1013 8.13926V16.8009C23.1013 17.9608 22.1611 18.9011 21.0012 18.9011H4.20023C3.04038 18.9011 2.10012 17.9608 2.10012 16.8009V8.13905Z" fill="#40513B"/>
</svg>
