<svg width="25" height="25" viewBox="0 0 25 25" fill="none" xmlns="http://www.w3.org/2000/svg">
<path d="M10.6206 0.0304128C4.76411 0.0304128 0 4.80522 0 10.6749C0 16.5445 4.76411 21.3193 10.6206 21.3193C12.411 21.3193 14.171 20.8936 15.6578 20.0724C15.7769 20.2161 15.909 20.3484 16.0523 20.4678L19.0868 23.5091C19.367 23.8251 19.7087 24.0803 20.0908 24.2592C20.473 24.438 20.8877 24.5367 21.3093 24.5491C21.7309 24.5616 22.1506 24.4875 22.5426 24.3315C22.9346 24.1755 23.2907 23.9408 23.5889 23.6419C23.8872 23.343 24.1213 22.9861 24.277 22.5932C24.4327 22.2003 24.5066 21.7797 24.4942 21.3571C24.4817 20.9345 24.3833 20.519 24.2048 20.1359C24.0264 19.7529 23.7717 19.4105 23.4564 19.1296L20.4219 16.0884C20.2741 15.9402 20.1114 15.8077 19.9364 15.693C20.7557 14.2028 21.2716 12.4692 21.2716 10.6445C21.2716 4.7748 16.5075 0 10.651 0L10.6206 0.0304128ZM10.6206 3.07169C14.8385 3.07169 18.2068 6.44751 18.2068 10.6749C18.2068 12.6821 17.4785 14.5373 16.204 15.9059C16.1737 15.9363 16.1434 15.9667 16.113 15.9971C15.9697 16.1165 15.8376 16.2488 15.7185 16.3925C14.3834 17.609 12.5627 18.3085 10.5903 18.3085C6.37238 18.3085 3.00412 14.9327 3.00412 10.7053C3.00412 6.47792 6.37238 3.1021 10.5903 3.1021L10.6206 3.07169Z" fill="#40513B"/>
</svg>
